<?xml version="1.0" encoding="UTF-8" standalone="no"?>
<svg
   viewBox="0 0 16 13.992374"
   version="1.1"
   id="svg1"
   sodipodi:docname="volumemax.svg"
   width="16"
   height="13.992374"
   inkscape:version="1.3.2 (091e20ef0f, 2023-11-25)"
   xmlns:inkscape="http://www.inkscape.org/namespaces/inkscape"
   xmlns:sodipodi="http://sodipodi.sourceforge.net/DTD/sodipodi-0.dtd"
   xmlns="http://www.w3.org/2000/svg"
   xmlns:svg="http://www.w3.org/2000/svg">
  <defs
     id="defs1" />
  <sodipodi:namedview
     id="namedview1"
     pagecolor="#ffffff"
     bordercolor="#000000"
     borderopacity="0.25"
     inkscape:showpageshadow="2"
     inkscape:pageopacity="0.0"
     inkscape:pagecheckerboard="0"
     inkscape:deskcolor="#d1d1d1"
     inkscape:zoom="54.8125"
     inkscape:cx="7.990878"
     inkscape:cy="7.2337514"
     inkscape:window-width="933"
     inkscape:window-height="1038"
     inkscape:window-x="0"
     inkscape:window-y="0"
     inkscape:window-maximized="1"
     inkscape:current-layer="svg1" />
  <path
     d="M 7,8.626863e-5 C 6.703125,-0.00381973 6.421875,0.12508627 6.230469,0.35164927 L 3,3.9922743 H 2 c -1.09375,0 -2,0.84375 -2,2 v 2 c 0,1.089844 0.910156,2 2,2 H 3 L 6.230469,13.632899 C 6.441406,13.886805 6.722656,13.99618 7,13.992274 Z M 13.460938,0.96102427 c -0.191407,-0.00391 -0.386719,0.054688 -0.558594,0.16796903 -0.457032,0.3125 -0.578125,0.933593 -0.269532,1.390625 1.824219,2.707031 1.824219,6.238281 0,8.9453117 -0.308593,0.457032 -0.1875,1.078125 0.269532,1.390625 0.457031,0.308594 1.078125,0.1875 1.390625,-0.269531 C 15.429688,10.894618 16,8.9453993 16,6.9922743 16,5.0391493 15.429688,3.0899303 14.292969,1.3985243 14.097656,1.1133683 13.78125,0.96102427 13.460938,0.96102427 Z M 10.039062,2.9805553 C 9.816406,2.9727433 9.585938,3.0391493 9.394531,3.1836803 9.132812,3.3828993 9,3.6836803 9,3.9883683 v 0.058594 c 0.011719,0.191406 0.074219,0.375 0.199219,0.535156 1.074219,1.429687 1.074219,3.390625 0,4.816406 -0.125,0.164062 -0.1875,0.347656 -0.199219,0.535156 v 0.0625 c 0,0.3046877 0.132812,0.6054687 0.394531,0.8046877 0.441407,0.332031 1.066407,0.242187 1.398438,-0.199219 C 11.597656,9.5352433 12,8.2657123 12,6.9922743 12,5.7188363 11.597656,4.4493053 10.792969,3.3789933 10.609375,3.1328993 10.328125,2.9961803 10.039062,2.9805553 Z m 0,0"
     fill="{color3}"
     id="path1" />
</svg>
